<?xml version="1.0" encoding="utf-8"?>
<!-- Generator: Adobe Illustrator 26.0.2, SVG Export Plug-In . SVG Version: 6.00 Build 0)  -->
<svg version="1.1" xmlns="http://www.w3.org/2000/svg" xmlns:xlink="http://www.w3.org/1999/xlink" x="0px" y="0px"
	 viewBox="0 0 500 312" style="enable-background:new 0 0 500 312;" xml:space="preserve">
<style type="text/css">
	.st0{display:none;}
	.st1{display:inline;fill:#FFFFFF;}
	.st2{fill:none;stroke:#333333;stroke-width:4;stroke-miterlimit:10;}
	.st3{fill:none;stroke:#231F20;stroke-miterlimit:10;}
	.st4{fill:#6B6B6B;}
	.st5{display:inline;fill:#231F20;}
	.st6{fill:#C4C4C4;}
</style>
<g id="Layer_3" class="st0">
	<rect x="-17.86" y="-11.49" class="st1" width="527.58" height="328.98"/>
</g>
<g id="Layer_4">
	<path class="st2" d="M10.63,283.75c0,0,124.57-186.59,128.14-186.59c3.57,0,19.2,25.82,19.2,25.82l69.2-115l21.08,48.38
		l10.62,24.38"/>
	<polyline class="st2" points="251.33,60.52 267.35,46.7 298.6,91.29 338.34,40.83 395.04,150.56 	"/>
	<polyline class="st2" points="383.56,128.34 404.42,110.07 495.13,295.3 495.14,295.31 	"/>
	<path class="st4" d="M137.93,165.88l-7.19-21.71L81.1,258.75c-31.3,8.93-57.4,20.32-76.25,33.39l5.77-8.39l0.36-0.54l95.38-141.8
		l29.81-40.49L137.93,165.88z"/>
	<path class="st4" d="M204.39,196.03c0.42,1.96,9.86,25.42,16.61,42.15c-49.87,1.8-95.85,8.61-134.39,19.05l32.73-72.2l21.44-2.2
		c0,0,13.39-49.73,14.07-52.38c0.67-2.64,69.31-115.96,69.31-115.96l2.67,57c0,0-9.37,10.56-10.04,17.16
		c-0.65,6.5,18.49,42.01,19.07,43.1l-27.44-30.83l2.67,23.81c0,0-12.72,21.57-14.05,25.82c-1.35,4.26,10.38,15.11,10.38,15.11
		S203.73,192.95,204.39,196.03z"/>
	<path class="st4" d="M260.99,229.31c3.35-4.23,16.74-20.09,16.06-24.05c-0.66-3.96-20.09-47.97-20.09-47.97l10.06,7.05v-38.29
		l18.74-21.12l-9.03-20.24l19.41,8.36l38.94-48.09l-2.44,78.46l8.38-10.72l13.73,37.26l-6.37,50.47l24.78-41.81l-3.01,65.13
		l18.84,28.53c-38.37-8.61-82.74-13.82-130.21-14.51C259.16,234.04,259.83,230.78,260.99,229.31z"/>
	<path class="st4" d="M468.31,279.03c-17.58-8.76-38.76-16.43-62.71-22.71l-7.32-22.88l5.02-57.21l5.68,39.17L468.31,279.03z"/>
	<g class="st0">
		<path class="st5" d="M83.97,286.59c0-3.28-0.26-5.94-0.77-7.97c-0.51-2.03-1.51-3.65-2.98-4.86c-1.48-1.21-3.56-2.1-6.25-2.68
			c-2.69-0.58-6.22-1.01-10.58-1.31v-3.48c3.72,0.2,8.01,0.39,12.89,0.58c4.87,0.2,10.33,0.29,16.36,0.29
			c6.03,0,12.09-0.24,18.18-0.72c6.09-0.48,12.34-0.73,18.76-0.73c6.03,0,11.86,0.58,17.51,1.74c5.64,1.16,10.65,2.9,15.01,5.22
			c4.36,2.32,7.86,5.29,10.49,8.92c2.63,3.62,3.95,7.9,3.95,12.83c0,4.35-1.19,8.1-3.56,11.24c-2.38,3.14-5.52,5.78-9.43,7.9
			c-3.91,2.13-8.34,3.7-13.28,4.71c-4.94,1.01-10.04,1.52-15.3,1.52c-4.23,0-8.5-0.24-12.8-0.73c-4.3-0.48-8.44-1.3-12.41-2.46
			v25.37c0,3.29,0.19,5.97,0.58,8.05c0.38,2.08,1.28,3.75,2.69,5c1.41,1.26,3.53,2.17,6.35,2.75c2.82,0.58,6.73,1.01,11.74,1.31v2.9
			c-5.52-0.2-11-0.34-16.45-0.44c-5.45-0.1-10.94-0.14-16.45-0.14c-5.9,0-11.74,0.05-17.51,0.14c-5.77,0.1-11.55,0.24-17.32,0.44
			v-2.9c4.74-0.29,8.5-0.73,11.26-1.31c2.76-0.58,4.81-1.5,6.16-2.75c1.35-1.25,2.21-2.92,2.6-5c0.38-2.08,0.58-4.76,0.58-8.05
			V286.59z M109.76,312.11c2.05,0.68,4.39,1.26,7.02,1.74c2.63,0.48,5.16,0.73,7.6,0.73c8.72,0,15.3-2.05,19.72-6.16
			c4.42-4.11,6.64-9.3,6.64-15.58c0-3.09-0.45-5.97-1.35-8.63c-0.9-2.66-2.31-4.98-4.23-6.96c-1.92-1.98-4.46-3.53-7.6-4.64
			c-3.15-1.11-6.96-1.67-11.45-1.67c-2.95,0-5.77,0.2-8.47,0.58c-2.69,0.39-5.32,0.97-7.89,1.74V312.11z"/>
		<path class="st5" d="M268.4,296.6h31.41v2.9c-2.72,0.39-4.94,0.85-6.66,1.38c-1.72,0.53-3.22,1.38-4.49,2.54
			c-1.27,1.16-2.45,2.71-3.54,4.64c-1.09,1.93-2.4,4.49-3.94,7.68l-12.51,25.81c2.99,5.22,6.55,9.3,10.67,12.25
			c4.12,2.95,9.18,4.52,15.16,4.71v3.48c-3.26-0.2-6.51-0.34-9.72-0.44c-3.22-0.1-6.46-0.14-9.72-0.14c-2.81,0-5.6,0.05-8.36,0.14
			c-2.77,0.1-5.55,0.24-8.36,0.44l-2.04-6.52c-3.35,2.71-7.3,4.86-11.83,6.45c-4.53,1.6-8.84,2.39-12.92,2.39
			c-3.81,0-7.37-0.51-10.67-1.52c-3.31-1.01-6.19-2.61-8.63-4.78c-2.45-2.17-4.38-4.98-5.78-8.41c-1.41-3.43-2.11-7.51-2.11-12.25
			c0-4.45,0.79-8.31,2.38-11.6c1.59-3.28,3.69-6.14,6.32-8.55c2.63-2.42,5.62-4.42,8.97-6.02c3.35-1.59,6.8-2.87,10.33-3.84
			c-2.09-1.35-4.1-2.73-6.05-4.13c-1.95-1.4-3.7-2.92-5.24-4.57c-1.54-1.64-2.77-3.53-3.67-5.65c-0.91-2.13-1.36-4.64-1.36-7.54
			c0-2.7,0.68-5.19,2.04-7.47c1.36-2.27,3.2-4.23,5.51-5.87c2.31-1.64,4.98-2.92,8.02-3.84c3.04-0.92,6.28-1.38,9.72-1.38
			c3.72,0,7.07,0.49,10.06,1.45c2.99,0.97,5.55,2.32,7.68,4.06c2.13,1.74,3.76,3.77,4.9,6.09c1.13,2.32,1.7,4.78,1.7,7.39
			c0,3.19-0.57,5.94-1.7,8.26c-1.14,2.32-2.65,4.33-4.56,6.02c-1.9,1.69-4.06,3.1-6.46,4.2c-2.4,1.11-4.87,2.06-7.41,2.83
			c2.63,1.65,4.96,3.65,7,6.02c2.04,2.37,3.9,4.91,5.58,7.61c1.68,2.71,3.2,5.46,4.55,8.26c1.36,2.8,2.58,5.46,3.67,7.97
			c0.72-1.45,1.68-3.41,2.86-5.87c1.18-2.46,2.31-5.07,3.4-7.83c1.09-2.75,2.04-5.41,2.86-7.97c0.81-2.56,1.22-4.62,1.22-6.16
			c0-3.38-0.63-5.7-1.9-6.96c-1.27-1.25-3.4-2.17-6.39-2.76V296.6z M221.76,330.96c0,3.48,0.48,6.72,1.43,9.71
			c0.95,3,2.31,5.58,4.08,7.76c1.77,2.18,3.92,3.87,6.46,5.07c2.54,1.21,5.35,1.81,8.43,1.81c2.26,0,4.46-0.34,6.59-1.01
			c2.13-0.68,4.06-1.83,5.78-3.48c-1.27-2.9-2.65-6.43-4.15-10.58c-1.5-4.16-3.06-8.21-4.69-12.18c-1.63-3.96-3.29-7.59-4.96-10.87
			c-1.68-3.28-3.42-5.51-5.24-6.67c-4.9,2.22-8.41,4.91-10.54,8.05C222.82,321.7,221.76,325.83,221.76,330.96z M231.01,286.3
			c0,3.87,1.16,7.37,3.47,10.51c2.31,3.14,5.01,5.58,8.09,7.32c2.9-1.93,5.21-4.2,6.94-6.81c1.72-2.61,2.58-6.18,2.58-10.73
			c0-1.74-0.16-3.43-0.48-5.07c-0.32-1.64-0.88-3.12-1.7-4.42c-0.82-1.31-1.9-2.37-3.26-3.19c-1.36-0.82-3.08-1.23-5.17-1.23
			c-3.72,0-6.39,1.38-8.02,4.13C231.82,279.56,231.01,282.73,231.01,286.3z"/>
		<path class="st5" d="M393.23,361.11c-1.36-5.41-3.11-11.35-5.24-17.83c-2.13-6.47-4.53-13.14-7.21-20.01
			c-2.68-6.86-5.49-13.75-8.43-20.66c-2.95-6.91-5.87-13.51-8.77-19.79h-0.27c-0.45,4.16-1,8.1-1.63,11.82
			c-0.64,3.72-1.25,7.63-1.84,11.74c-0.59,4.11-1.09,8.6-1.5,13.48c-0.41,4.88-0.61,10.56-0.61,17.04c0,3.29,0.11,6.21,0.34,8.77
			c0.23,2.56,0.84,4.74,1.84,6.52c1,1.79,2.49,3.24,4.49,4.35c1.99,1.11,4.76,1.96,8.29,2.54v2.9c-2.99-0.2-5.96-0.34-8.91-0.44
			c-2.95-0.1-5.92-0.14-8.91-0.14c-3.17,0-6.32,0.05-9.45,0.14c-3.13,0.1-6.28,0.24-9.45,0.44v-2.9c2.72-0.29,4.96-0.97,6.73-2.03
			c1.77-1.06,3.17-2.44,4.22-4.13c1.04-1.69,1.84-3.65,2.38-5.87c0.54-2.22,1-4.64,1.36-7.25c1.54-10.24,2.88-20.46,4.01-30.66
			c1.13-10.2,2.6-20.42,4.42-30.66c-1.54-2.51-3.58-4.47-6.12-5.87c-2.54-1.4-5.12-2.34-7.75-2.83v-3.48
			c3.81,0.2,7.64,0.39,11.49,0.58c3.85,0.2,7.68,0.29,11.49,0.29c3.26,0,6.57-0.05,9.93-0.14c3.35-0.1,6.66-0.34,9.93-0.73v3.48
			c-2.09,0.29-3.94,0.89-5.57,1.81c-1.63,0.92-2.45,2.68-2.45,5.29c0,1.06,0.63,3.24,1.9,6.52c1.27,3.29,2.9,7.32,4.9,12.11
			c1.99,4.78,4.19,10.13,6.6,16.02c2.4,5.9,4.69,11.99,6.87,18.27c0.63-1.06,1.59-3.04,2.86-5.94c1.27-2.9,2.67-6.26,4.22-10.07
			c1.54-3.82,3.13-7.83,4.76-12.03c1.63-4.2,3.1-8.14,4.42-11.82c1.31-3.67,2.4-6.84,3.26-9.5c0.86-2.66,1.29-4.32,1.29-5
			c0-0.87-0.41-1.64-1.22-2.32c-0.82-0.67-1.79-1.23-2.92-1.67c-1.14-0.44-2.27-0.8-3.4-1.09c-1.14-0.29-2.06-0.48-2.79-0.58v-3.48
			c3.54,0.2,7.07,0.39,10.61,0.58c3.54,0.2,7.07,0.29,10.61,0.29c8.07,0,16.09-0.29,24.07-0.87v3.48
			c-4.26,0.39-7.62,1.55-10.06,3.48c-2.45,1.93-3.67,5.36-3.67,10.29c0,1.06,0.23,3.33,0.68,6.81c0.45,3.48,1.02,7.56,1.7,12.25
			c0.68,4.69,1.43,9.67,2.24,14.93c0.82,5.27,1.61,10.15,2.38,14.64c0.77,4.49,1.43,8.31,1.97,11.45c0.54,3.14,0.91,4.95,1.09,5.44
			c0.63,1.84,1.31,3.34,2.04,4.49c0.72,1.16,1.59,2.1,2.58,2.83c1,0.72,2.17,1.28,3.54,1.67c1.36,0.39,2.9,0.72,4.62,1.01v2.9
			c-3.45-0.2-6.91-0.34-10.4-0.44c-3.49-0.1-6.96-0.14-10.4-0.14c-4.62,0-9.23,0.05-13.8,0.14c-4.58,0.1-9.18,0.24-13.8,0.44v-2.61
			c2.18-0.48,4.28-0.92,6.32-1.3c2.04-0.39,3.87-1.04,5.51-1.96c1.63-0.92,2.92-2.2,3.88-3.84c0.95-1.64,1.43-3.91,1.43-6.81
			c0-0.48-0.2-2.17-0.61-5.07c-0.41-2.9-0.91-6.45-1.5-10.66c-0.59-4.2-1.27-8.79-2.04-13.77c-0.77-4.98-1.52-9.74-2.24-14.28
			c-0.73-4.54-1.38-8.6-1.97-12.18c-0.59-3.57-1.07-6.09-1.43-7.54h-0.27c-1.9,6.77-4.15,13.39-6.73,19.86
			c-2.58,6.48-5.17,12.97-7.75,19.5c-2.58,6.52-4.99,13.07-7.21,19.65c-2.22,6.57-3.97,13.29-5.23,20.15H393.23z"/>
	</g>
</g>
<g id="Layer_2">
	<path class="st6" d="M104.98,311.81l-9.22-8.2c0,0-3-31.46-2.25-34.09c0.75-2.62,7.49-20.6,10.49-27.34
		c3-6.74,8.99-33.71,9.36-35.21c0.37-1.5,24.72-28.47,26.97-32.59c2.25-4.12,14.61-28.47,23.22-31.46c8.62-3,25.1-7.49,35.58-6.74
		c10.49,0.75,30.72,1.71,35.96-0.08c5.24-1.79,23.97-10.78,27.72-11.15c3.75-0.37,14.98,4.49,20.98,5.24
		c5.99,0.75,34.84,2.62,40.45,3.37c5.62,0.75,21.35,9.74,23.6,10.49c2.25,0.75,5.24,3.75,7.12,3.75c1.87,0,15.73-4.12,18.35-2.62
		c2.62,1.5,5.99,2.62,6.37,6.74c0.37,4.12-4.12,7.12-4.12,7.12s8.24,10.86,9.36,12.36c1.12,1.5,8.24,8.62,8.99,10.49
		c0.75,1.87-1.12,5.99,0,7.12c1.12,1.12,10.86,8.99,12.36,10.86c1.5,1.87,3,4.49,3,6.37c0,1.87-11.24,9.34-14.61,11.04
		c-3.37,1.7-8.24-1.3-12.36-1.68c-4.12-0.37-12.74-1.12-16.86-0.37c-4.12,0.75-8.24,4.87-10.86,5.24
		c-2.62,0.37-10.11-8.24-12.36-7.49c-2.25,0.75-20.23,26.59-27.72,29.59c-7.49,3-11.99-2.25-16.86-1.87
		c-4.87,0.37-20.98,10.49-23.97,17.23s-9.74,20.6-10.11,24.72c-0.37,4.12-0.75,15.36-0.75,15.36s5.62,0,8.24,1.5
		c2.62,1.5,5.62,6.37,5.62,8.24c0,1.87-0.75,3.75-0.75,3.75s-30.72,0.75-31.09,0s-2.62-8.24-5.99-14.61
		c-3.37-6.37-13.48-21.73-13.48-23.6s3.75-25.1,3.37-25.85c-0.37-0.75-26.22,8.62-31.46,9.36s-35.96-3-37.83-1.87
		c-1.87,1.12-18.73,17.6-24.35,22.47c-5.62,4.87-13.11,10.49-13.48,13.48c-0.37,3-0.75,7.87-0.75,7.87s5.24-0.37,6.74,1.12
		c1.5,1.5,5.62,4.12,5.62,6.74c0,2.62-0.37,5.2-0.37,5.2H104.98z"/>
	<path class="st6" d="M166.93,258.85c0,0,17.45,31.03,18.73,34.63c1.87,5.26,2.25,17.91,3,18.33s35.77,0,35.77,0s0-7.82-4.49-10.45
		c-4.49-2.62-10.3-1.5-10.3-1.5c-0.79-0.79-0.19-8.36,0.94-14.8c1.12-6.44,9.74-31.46,9.74-31.46s-17.06,5.55-23.04,6.74
		C190.71,261.66,166.93,258.85,166.93,258.85z"/>
	<path class="st6" d="M293.78,248.55c3.62-1.13,15.23,2,18.85,1.5s17.98-15.98,18.48-15.98c0.5,0,3.25,17.23,4.25,18.6
		c1,1.37,3.37,6.74,4.12,7.49s15.36,11.49,16.73,13.98c1.37,2.5,6.24,13.61,5.99,15.98c-0.25,2.37-9.11,15.23-14.36,16.23
		c-5.24,1-6.87-2.37-7.24-3.25c-0.37-0.87-0.12-8.65-0.12-9.63c0-0.98-0.87-3.35-2.12-3.6c-1.25-0.25-19.98,1-22.97,0.12
		c-3-0.87-35.09-33.84-35.33-33.09S289.79,249.8,293.78,248.55z"/>
</g>
</svg>
